<svg xmlns="http://www.w3.org/2000/svg" viewBox="50 50 750 750"><defs><style>.a{fill:#fff;}</style></defs><title>VTEX_icon_white_RGB</title><path class="a" d="M615.09,193.14h-374c-29,0-47.57,30.83-34,56.46l37.43,70.84H176.68A24.94,24.94,0,0,0,154.62,357L274.95,584.75a24.94,24.94,0,0,0,44.08,0l32.68-61.52,41,77.62c14.43,27.3,53.52,27.35,68,.08L648.17,248.17C661.42,223.22,643.34,193.14,615.09,193.14Zm-168,150.72L366.26,496a16.6,16.6,0,0,1-29.33,0l-80.05-151.5a16.6,16.6,0,0,1,14.67-24.35H432.83A16.15,16.15,0,0,1,447.09,343.86Z"/><path class="a" d="M615.09,193.14h-374c-29,0-47.57,30.83-34,56.46l37.43,70.84H176.68A24.94,24.94,0,0,0,154.62,357L274.95,584.75a24.94,24.94,0,0,0,44.08,0l32.68-61.52,41,77.62c14.43,27.3,53.52,27.35,68,.08L648.17,248.17C661.42,223.22,643.34,193.14,615.09,193.14Zm-168,150.72L366.26,496a16.6,16.6,0,0,1-29.33,0l-80.05-151.5a16.6,16.6,0,0,1,14.67-24.35H432.83A16.15,16.15,0,0,1,447.09,343.86Z"/></svg>